<svg xmlns="http://www.w3.org/2000/svg" width="39" height="36" viewBox="0 0 39 36">
    <g fill="none" fill-rule="evenodd">
        <path fill="#5ECAFA" d="M24.253 29.032l-2.914 5.34a2.3 2.3 0 0 1-3.943.158l-3.6-5.498H7.282a6.9 6.9 0 0 1-6.9-6.9V6.9a6.9 6.9 0 0 1 6.9-6.9h24.436a6.9 6.9 0 0 1 6.9 6.9v15.232a6.9 6.9 0 0 1-6.9 6.9h-7.465z"/>
        <path fill="#FFF" d="M8.03 7.742h17.205c1.056 0 1.912.866 1.912 1.935a1.924 1.924 0 0 1-1.912 1.936H8.03a1.924 1.924 0 0 1-1.911-1.936c0-1.069.856-1.935 1.911-1.935zm0 7.742h9.558c1.056 0 1.912.866 1.912 1.935a1.924 1.924 0 0 1-1.912 1.936H8.03a1.924 1.924 0 0 1-1.911-1.936c0-1.069.856-1.935 1.911-1.935z"/>
    </g>
</svg>
